<svg width="16" height="16" viewBox="0 0 16 16" fill="none" xmlns="http://www.w3.org/2000/svg">
<g clip-path="url(#clip0_387_395)">
<path fill-rule="evenodd" clip-rule="evenodd" d="M10.4712 7.52867C10.5962 7.65368 10.6664 7.82322 10.6664 8C10.6664 8.17677 10.5962 8.34631 10.4712 8.47133L6.6999 12.2427C6.63841 12.3063 6.56484 12.3571 6.48351 12.3921C6.40217 12.427 6.31469 12.4454 6.22617 12.4462C6.13765 12.4469 6.04986 12.4301 5.96793 12.3965C5.886 12.363 5.81157 12.3135 5.74897 12.2509C5.68638 12.1883 5.63688 12.1139 5.60336 12.032C5.56983 11.95 5.55297 11.8623 5.55374 11.7737C5.55451 11.6852 5.5729 11.5977 5.60784 11.5164C5.64277 11.4351 5.69356 11.3615 5.75724 11.3L9.05724 8L5.75724 4.7C5.6358 4.57426 5.5686 4.40586 5.57012 4.23106C5.57164 4.05627 5.64175 3.88906 5.76536 3.76545C5.88896 3.64185 6.05617 3.57173 6.23097 3.57022C6.40577 3.5687 6.57417 3.63589 6.6999 3.75733L10.4712 7.52867Z" fill="#787878"/>
</g>
<defs>
<clipPath id="clip0_387_395">
<rect width="16" height="16" fill="white"/>
</clipPath>
</defs>
</svg>
