<svg width="16" height="16" viewBox="0 0 16 16" fill="none" xmlns="http://www.w3.org/2000/svg">
<path d="M14.5 4.5V11.5C14.5 11.7652 14.3946 12.0196 14.2071 12.2071C14.0196 12.3946 13.7652 12.5 13.5 12.5H2.5C2.23478 12.5 1.98043 12.3946 1.79289 12.2071C1.60536 12.0196 1.5 11.7652 1.5 11.5V4.5M14.5 4.5C14.5 4.23478 14.3946 3.98043 14.2071 3.79289C14.0196 3.60536 13.7652 3.5 13.5 3.5H2.5C2.23478 3.5 1.98043 3.60536 1.79289 3.79289C1.60536 3.98043 1.5 4.23478 1.5 4.5M14.5 4.5L8.569 8.606C8.4018 8.72169 8.20332 8.78366 8 8.78366C7.79668 8.78366 7.5982 8.72169 7.431 8.606L1.5 4.5" stroke="black" stroke-linecap="round" stroke-linejoin="round"/>
</svg>
