<svg width="24" height="25" viewBox="0 0 24 25" fill="none" xmlns="http://www.w3.org/2000/svg">
<path d="M10.3636 3.84616C8.90722 3.84616 7.48354 4.27803 6.2726 5.08715C5.06167 5.89627 4.11786 7.04631 3.56052 8.39183C3.00319 9.73735 2.85737 11.2179 3.14149 12.6463C3.42562 14.0747 4.12693 15.3868 5.15675 16.4166C6.18657 17.4464 7.49863 18.1477 8.92703 18.4319C10.3554 18.716 11.836 18.5702 13.1815 18.0128C14.527 17.4555 15.6771 16.5117 16.4862 15.3007C17.2953 14.0898 17.7272 12.6661 17.7272 11.2098C17.7271 9.25685 16.9512 7.38396 15.5703 6.00305C14.1894 4.62213 12.3165 3.84629 10.3636 3.84616Z" stroke="#090908" stroke-miterlimit="10"/>
<path d="M15.8574 16.7035L21.0001 21.8462" stroke="#090908" stroke-miterlimit="10" stroke-linecap="round"/>
</svg>
