<svg width="39" height="39" viewBox="0 0 39 39" fill="none" xmlns="http://www.w3.org/2000/svg">
<rect width="39" height="39" rx="19.5" fill="white"/>
<path d="M21.6667 18.3334L19.1667 20.8334M26.9067 12.5259C26.9858 12.4986 27.0709 12.4941 27.1525 12.5129C27.234 12.5317 27.3085 12.5731 27.3676 12.6323C27.4267 12.6915 27.468 12.7661 27.4867 12.8476C27.5054 12.9292 27.5008 13.0143 27.4734 13.0934L22.5367 27.2017C22.5072 27.286 22.453 27.3595 22.3811 27.4127C22.3093 27.4658 22.2232 27.4962 22.1339 27.4998C22.0446 27.5034 21.9563 27.48 21.8804 27.4328C21.8045 27.3856 21.7446 27.3167 21.7084 27.235L19.0259 21.2C18.9811 21.0994 18.9006 21.019 18.8 20.9742L12.765 18.2909C12.6836 18.2545 12.615 18.1946 12.568 18.1188C12.521 18.043 12.4977 17.9549 12.5013 17.8658C12.5049 17.7767 12.5351 17.6907 12.5881 17.619C12.6411 17.5473 12.7143 17.493 12.7984 17.4634L26.9067 12.5259Z" stroke="black" stroke-linecap="round" stroke-linejoin="round"/>
</svg>
