<svg width="16" height="16" viewBox="0 0 16 16" fill="none" xmlns="http://www.w3.org/2000/svg">
<path d="M1.3335 7.99996L0.662513 7.66487L0.495174 7.99996L0.662513 8.33504L1.3335 7.99996ZM14.6668 8.00003L15.3378 8.33512L15.5052 8.00003L15.3378 7.66495L14.6668 8.00003ZM2.00448 8.33504C3.51822 5.30389 5.82 3.91667 8.00016 3.91669C10.1803 3.9167 12.4821 5.30396 13.9958 8.33512L15.3378 7.66495C13.6333 4.2517 10.8775 2.41671 8.00017 2.41669C5.12281 2.41667 2.36707 4.25162 0.662513 7.66487L2.00448 8.33504ZM0.662513 8.33504C2.36707 11.7483 5.1228 13.5833 8.00016 13.5833C10.8775 13.5833 13.6333 11.7484 15.3378 8.33512L13.9958 7.66495C12.4821 10.6961 10.1803 12.0833 8.00017 12.0833C5.82001 12.0833 3.51822 10.696 2.00448 7.66487L0.662513 8.33504ZM9.41683 8.00001C9.41683 8.78241 8.78257 9.41667 8.00016 9.41667V10.9167C9.61099 10.9167 10.9168 9.61084 10.9168 8.00001H9.41683ZM8.00016 9.41667C7.21776 9.41667 6.5835 8.78241 6.5835 8.00001H5.0835C5.0835 9.61084 6.38933 10.9167 8.00016 10.9167V9.41667ZM6.5835 8.00001C6.5835 7.2176 7.21776 6.58334 8.00016 6.58334V5.08334C6.38933 5.08334 5.0835 6.38918 5.0835 8.00001H6.5835ZM8.00016 6.58334C8.78257 6.58334 9.41683 7.2176 9.41683 8.00001H10.9168C10.9168 6.38918 9.61099 5.08334 8.00016 5.08334V6.58334Z" fill="#6D717C"/>
</svg>
