<svg width="24" height="24" viewBox="0 0 24 24" fill="none" xmlns="http://www.w3.org/2000/svg">
<path d="M16.7051 11.108C16.5431 8.121 14.9111 6.411 12.1711 6.394C10.5191 6.384 9.1381 7.084 8.2921 8.367L9.8001 9.4C10.4341 8.439 11.4351 8.24 12.1601 8.247C13.0631 8.253 13.7431 8.515 14.1841 9.027C14.5041 9.399 14.7191 9.914 14.8261 10.563C14.0261 10.427 13.1601 10.385 12.2361 10.438C9.6301 10.588 7.9561 12.108 8.0681 14.219C8.1251 15.29 8.6581 16.212 9.5701 16.814C10.3401 17.323 11.3341 17.571 12.3651 17.515C13.7281 17.44 14.7971 16.921 15.5431 15.97C16.1091 15.248 16.4671 14.312 16.6251 13.134C17.2751 13.526 17.7551 14.041 18.0221 14.661C18.4741 15.715 18.5001 17.447 17.0871 18.859C15.8491 20.095 14.3611 20.631 12.1121 20.647C9.6171 20.629 7.7301 19.828 6.5041 18.269C5.3541 16.809 4.7611 14.699 4.7391 12C4.7611 9.3 5.3551 7.191 6.5041 5.73C7.7301 4.171 9.6171 3.371 12.1121 3.353C14.6251 3.372 16.5441 4.175 17.8181 5.743C18.4431 6.511 18.9131 7.477 19.2241 8.603L20.9901 8.133C20.6131 6.746 20.0211 5.551 19.2161 4.56C17.5831 2.55 15.1831 1.521 12.1061 1.5C9.0351 1.521 6.6741 2.555 5.0871 4.571C3.6761 6.366 2.9471 8.877 2.9231 12.007C2.9471 15.137 3.6761 17.634 5.0871 19.429C6.6741 21.445 9.0471 22.479 12.1171 22.5C14.8481 22.481 16.7721 21.766 18.3571 20.183C20.4321 18.11 20.3691 15.513 19.6861 13.919C19.1611 12.694 18.1161 11.713 16.7061 11.109M12.2681 15.666C11.1261 15.73 9.9401 15.218 9.8811 14.12C9.8381 13.306 10.4611 12.398 12.3381 12.29C13.1864 12.233 14.0385 12.2916 14.8711 12.464C14.6551 15.166 13.3861 15.604 12.2681 15.666Z" fill="white"/>
</svg>
