<svg width="32" height="32" viewBox="0 0 32 32" fill="none" xmlns="http://www.w3.org/2000/svg">
<path d="M9.33333 20H8C5.79086 20 4 18.2091 4 16V10.6667C4 8.45753 5.79086 6.66667 8 6.66667H18.6667C20.8758 6.66667 22.6667 8.45753 22.6667 10.6667V12M16 18.6667H18.6667M18.6667 18.6667H21.3333M18.6667 18.6667V16M18.6667 18.6667V21.3333M28 21.3333V16C28 13.7909 26.2091 12 24 12H13.3333C11.1242 12 9.33333 13.7909 9.33333 16V21.3333C9.33333 23.5425 11.1242 25.3333 13.3333 25.3333H24C26.2091 25.3333 28 23.5425 28 21.3333Z" stroke="white" stroke-width="2" stroke-linecap="round"/>
</svg>
