<svg width="19" height="18" viewBox="0 0 19 18" fill="none" xmlns="http://www.w3.org/2000/svg">
<g clip-path="url(#clip0_394_1720)">
<mask id="mask0_394_1720" style="mask-type:luminance" maskUnits="userSpaceOnUse" x="0" y="0" width="19" height="18">
<path d="M18.1676 7.36364H9.78125V10.8409H14.6085C14.1585 13.05 12.2767 14.3182 9.78125 14.3182C6.8358 14.3182 4.46307 11.9455 4.46307 9C4.46307 6.05455 6.8358 3.68182 9.78125 3.68182C11.0494 3.68182 12.1949 4.13182 13.0949 4.86818L15.7131 2.25C14.1176 0.859091 12.0722 0 9.78125 0C4.79034 0 0.78125 4.00909 0.78125 9C0.78125 13.9909 4.79034 18 9.78125 18C14.2813 18 18.3722 14.7273 18.3722 9C18.3722 8.46819 18.2903 7.89546 18.1676 7.36364Z" fill="white"/>
</mask>
<g mask="url(#mask0_394_1720)">
<path d="M-0.0366211 14.3182V3.68182L6.91793 9.00001L-0.0366211 14.3182Z" fill="#FBBC05"/>
</g>
<mask id="mask1_394_1720" style="mask-type:luminance" maskUnits="userSpaceOnUse" x="0" y="0" width="19" height="18">
<path d="M18.1676 7.36364H9.78125V10.8409H14.6085C14.1585 13.05 12.2767 14.3182 9.78125 14.3182C6.8358 14.3182 4.46307 11.9455 4.46307 9C4.46307 6.05455 6.8358 3.68182 9.78125 3.68182C11.0494 3.68182 12.1949 4.13182 13.0949 4.86818L15.7131 2.25C14.1176 0.859091 12.0722 0 9.78125 0C4.79034 0 0.78125 4.00909 0.78125 9C0.78125 13.9909 4.79034 18 9.78125 18C14.2813 18 18.3722 14.7273 18.3722 9C18.3722 8.46819 18.2903 7.89546 18.1676 7.36364Z" fill="white"/>
</mask>
<g mask="url(#mask1_394_1720)">
<path d="M-0.0366211 3.68183L6.91793 9.00001L9.78156 6.50455L19.5997 4.9091V-0.818176H-0.0366211V3.68183Z" fill="#EA4335"/>
</g>
<mask id="mask2_394_1720" style="mask-type:luminance" maskUnits="userSpaceOnUse" x="0" y="0" width="19" height="18">
<path d="M18.1676 7.36364H9.78125V10.8409H14.6085C14.1585 13.05 12.2767 14.3182 9.78125 14.3182C6.8358 14.3182 4.46307 11.9455 4.46307 9C4.46307 6.05455 6.8358 3.68182 9.78125 3.68182C11.0494 3.68182 12.1949 4.13182 13.0949 4.86818L15.7131 2.25C14.1176 0.859091 12.0722 0 9.78125 0C4.79034 0 0.78125 4.00909 0.78125 9C0.78125 13.9909 4.79034 18 9.78125 18C14.2813 18 18.3722 14.7273 18.3722 9C18.3722 8.46819 18.2903 7.89546 18.1676 7.36364Z" fill="white"/>
</mask>
<g mask="url(#mask2_394_1720)">
<path d="M-0.0366211 14.3182L12.2361 4.9091L15.4679 5.31819L19.5997 -0.818176V18.8182H-0.0366211V14.3182Z" fill="#34A853"/>
</g>
<mask id="mask3_394_1720" style="mask-type:luminance" maskUnits="userSpaceOnUse" x="0" y="0" width="19" height="18">
<path d="M18.1676 7.36364H9.78125V10.8409H14.6085C14.1585 13.05 12.2767 14.3182 9.78125 14.3182C6.8358 14.3182 4.46307 11.9455 4.46307 9C4.46307 6.05455 6.8358 3.68182 9.78125 3.68182C11.0494 3.68182 12.1949 4.13182 13.0949 4.86818L15.7131 2.25C14.1176 0.859091 12.0722 0 9.78125 0C4.79034 0 0.78125 4.00909 0.78125 9C0.78125 13.9909 4.79034 18 9.78125 18C14.2813 18 18.3722 14.7273 18.3722 9C18.3722 8.46819 18.2903 7.89546 18.1676 7.36364Z" fill="white"/>
</mask>
<g mask="url(#mask3_394_1720)">
<path d="M19.5994 18.8182L6.91761 9.00001L5.28125 7.77273L19.5994 3.68182V18.8182Z" fill="#4285F4"/>
</g>
</g>
<defs>
<clipPath id="clip0_394_1720">
<rect width="18" height="18" fill="white" transform="translate(0.5)"/>
</clipPath>
</defs>
</svg>
