<svg width="32" height="32" viewBox="0 0 32 32" fill="none" xmlns="http://www.w3.org/2000/svg">
<path d="M14.6539 3.50722C15.1941 2.38649 16.8053 2.38649 17.3454 3.50722L20.0322 9.08218C20.2496 9.53322 20.6827 9.84475 21.1831 9.91006L27.3684 10.7173C28.6118 10.8796 29.1097 12.3968 28.2001 13.2518L23.6753 17.5046C23.3092 17.8486 23.1438 18.3527 23.2357 18.8441L24.3717 24.918C24.6 26.139 23.2965 27.0767 22.1942 26.4844L16.7109 23.5378C16.2673 23.2994 15.732 23.2994 15.2884 23.5378L9.80512 26.4844C8.70283 27.0767 7.39933 26.139 7.62769 24.918L8.76362 18.8441C8.85552 18.3527 8.6901 17.8486 8.32403 17.5046L3.79924 13.2518C2.88963 12.3968 3.38752 10.8796 4.63095 10.7173L10.8163 9.91006C11.3167 9.84475 11.7498 9.53322 11.9671 9.08218L14.6539 3.50722Z" stroke="white" strokeWidth="2" strokeLinecap="round" strokeLinejoin="round"/>
</svg>
