<svg width="60" height="60" viewBox="0 0 60 60" fill="none" xmlns="http://www.w3.org/2000/svg">
<path d="M48.5475 22.5C45.5806 15.1704 38.3947 10 30.0013 10C21.6078 10 14.422 15.1704 11.4551 22.5M48.5475 22.5H50.0026V12.5M48.5475 22.5H40.0026" stroke="white" strokeWidth="2" strokeLinecap="round" strokeLinejoin="round"/>
<path d="M19.8145 49.9133V35.647H19.751L18.0847 36.7737C17.2595 37.2974 16.8152 37.4561 16.2915 37.4561C15.2441 37.4561 14.4824 36.6943 14.4824 35.647C14.4824 34.8694 14.9585 34.1711 15.8948 33.584L18.4814 31.8542C19.7192 31.0608 20.8459 30.6958 21.9092 30.6958C23.7659 30.6958 25.0037 31.9495 25.0037 33.8855V49.9133C25.0037 51.7065 24.0674 52.7063 22.417 52.7063C20.7507 52.7063 19.8145 51.6907 19.8145 49.9133Z" fill="white"/>
<path d="M28.2092 42.2644V41.106C28.2092 34.6472 31.5259 30.4419 36.8579 30.4419C42.2058 30.4419 45.3955 34.5679 45.3955 41.106V42.2644C45.3955 48.7073 42.0471 52.9761 36.7468 52.9761C31.4465 52.9761 28.2092 48.8025 28.2092 42.2644ZM33.4778 41.1218V42.2485C33.4778 46.3745 34.7156 48.7866 36.8103 48.7866C38.8892 48.7866 40.1428 46.3586 40.1428 42.2485V41.1218C40.1428 37.0276 38.8892 34.6313 36.7944 34.6313C34.6997 34.6313 33.4778 37.0117 33.4778 41.1218Z" fill="white"/>
</svg>
