<svg width="60" height="60" viewBox="0 0 60 60" fill="none" xmlns="http://www.w3.org/2000/svg">
<path d="M11.4551 22.5C14.422 15.1704 21.6078 10 30.0013 10C38.3947 10 45.5806 15.1704 48.5475 22.5M10 12.5V22.5H20" stroke="white" strokeWidth="2" strokeLinecap="round" strokeLinejoin="round"/>
<path d="M18.5645 49.9133V35.647H18.501L16.8347 36.7737C16.0095 37.2974 15.5652 37.4561 15.0415 37.4561C13.9941 37.4561 13.2324 36.6943 13.2324 35.647C13.2324 34.8694 13.7085 34.1711 14.6448 33.584L17.2314 31.8542C18.4692 31.0608 19.5959 30.6958 20.6592 30.6958C22.5159 30.6958 23.7537 31.9495 23.7537 33.8855V49.9133C23.7537 51.7065 22.8174 52.7063 21.167 52.7063C19.5007 52.7063 18.5645 51.6907 18.5645 49.9133Z" fill="white"/>
<path d="M26.9592 42.2644V41.106C26.9592 34.6472 30.2759 30.4419 35.6079 30.4419C40.9558 30.4419 44.1455 34.5679 44.1455 41.106V42.2644C44.1455 48.7073 40.7971 52.9761 35.4968 52.9761C30.1965 52.9761 26.9592 48.8025 26.9592 42.2644ZM32.2278 41.1218V42.2485C32.2278 46.3745 33.4656 48.7866 35.5603 48.7866C37.6392 48.7866 38.8928 46.3586 38.8928 42.2485V41.1218C38.8928 37.0276 37.6392 34.6313 35.5444 34.6313C33.4497 34.6313 32.2278 37.0117 32.2278 41.1218Z" fill="white"/>
</svg>
