<svg width="24" height="24" viewBox="0 0 24 24" fill="none" xmlns="http://www.w3.org/2000/svg">
<path d="M15.4648 10C15.8052 10.5884 16 11.2715 16 12.0001C16 12.7287 15.8052 13.4118 15.4648 14.0001M4 8H5.2759C5.74377 8 6.19684 7.83597 6.55627 7.53645L10.3598 4.36682C11.0111 3.82405 12 4.28721 12 5.13505V18.865C12 19.7128 11.0111 20.176 10.3598 19.6332L6.55627 16.4636C6.19684 16.164 5.74377 16 5.2759 16H4C2.89543 16 2 15.1046 2 14V10C2 8.89543 2.89543 8 4 8Z" stroke="#ffffff" strokeWidth="2" strokeLinecap="round"/>
</svg>
